<?xml version="1.0" encoding="UTF-8" standalone="no"?>
<svg
   width="16"
   height="12"
   fill="currentColor"
   class="bi bi-upc-scan"
   viewBox="0 0 16 12"
   version="1.1"
   id="svg1"
   xmlns="http://www.w3.org/2000/svg"
   xmlns:svg="http://www.w3.org/2000/svg">
  <defs
     id="defs1" />
  <path
     d="M 1.5,1 C 1.2238576,1 1,1.2238576 1,1.5 v 3 c 0,0.6666664 -1,0.6666664 -1,0 v -3 C 0,0.6715729 0.67157288,0 1.5,0 h 3 c 0.6666664,0 0.6666664,1 0,1 z M 11,0.5 C 11,0.2238576 11.223858,0 11.5,0 h 3 C 15.328427,0 16,0.6715729 16,1.5 v 3 c 0,0.6666664 -1,0.6666664 -1,0 v -3 C 15,1.2238576 14.776142,1 14.5,1 h -3 C 11.223858,1 11,0.7761424 11,0.5 M 0.5,7 C 0.77614237,7 1,7.2238576 1,7.5 v 3 C 1,10.776142 1.2238576,11 1.5,11 h 3 c 0.6666664,0 0.6666664,1 0,1 h -3 C 0.67157288,12 0,11.328427 0,10.5 v -3 C 0,7.2238576 0.22385763,7 0.5,7 m 15,0 C 15.776142,7 16,7.2238576 16,7.5 v 3 c 0,0.828427 -0.671573,1.5 -1.5,1.5 h -3 c -0.666666,0 -0.666666,-1 0,-1 h 3 c 0.276142,0 0.5,-0.223858 0.5,-0.5 v -3 C 15,7.2238576 15.223858,7 15.5,7 M 3,2.5 c 0,-0.6666664 1,-0.6666664 1,0 v 7 c 0,0.666666 -1,0.666666 -1,0 z m 2,0 c 0,-0.6666664 1,-0.6666664 1,0 v 7 c 0,0.666666 -1,0.666666 -1,0 z m 2,0 c 0,-0.6666664 1,-0.6666664 1,0 v 7 c 0,0.666666 -1,0.666666 -1,0 z m 2,0 C 9,2.2238576 9.2238576,2 9.5,2 h 1 C 10.776142,2 11,2.2238576 11,2.5 v 7 C 11,9.776142 10.776142,10 10.5,10 h -1 C 9.2238576,10 9,9.776142 9,9.5 Z m 3,0 c 0,-0.6666664 1,-0.6666664 1,0 v 7 c 0,0.666666 -1,0.666666 -1,0 z"
     id="path1" />
</svg>
