<?xml version="1.0" encoding="UTF-8" standalone="no"?>
<svg
   width="16"
   height="14"
   fill="currentColor"
   class="bi bi-upc-scan"
   viewBox="0 0 16 14"
   version="1.1"
   id="svg1"
   xmlns="http://www.w3.org/2000/svg"
   xmlns:svg="http://www.w3.org/2000/svg">
  <defs
     id="defs1" />
  <path
     d="M 1.5,1 C 1.2238576,1 1,1.2238576 1,1.5 v 3 c 0,0.6666664 -1,0.6666664 -1,0 v -3 C 0,0.6715729 0.67157288,0 1.5,0 h 3 c 0.6666664,0 0.6666664,1 0,1 z M 11,0.5 C 11,0.2238576 11.223858,0 11.5,0 h 3 C 15.328427,0 16,0.6715729 16,1.5 v 3 c 0,0.6666664 -1,0.6666664 -1,0 v -3 C 15,1.2238576 14.776142,1 14.5,1 h -3 C 11.223858,1 11,0.7761424 11,0.5 M 0.5,9 C 0.77614237,9 1,9.223858 1,9.5 v 3 C 1,12.776142 1.2238576,13 1.5,13 h 3 c 0.6666664,0 0.6666664,1 0,1 h -3 C 0.67157288,14 0,13.328427 0,12.5 v -3 C 0,9.223858 0.22385763,9 0.5,9 m 15,0 C 15.776142,9 16,9.223858 16,9.5 v 3 c 0,0.828427 -0.671573,1.5 -1.5,1.5 h -3 c -0.666666,0 -0.666666,-1 0,-1 h 3 c 0.276142,0 0.5,-0.223858 0.5,-0.5 v -3 C 15,9.223858 15.223858,9 15.5,9"
     id="path1" />
</svg>
