<?xml version="1.0" encoding="UTF-8" standalone="no"?>
<svg
   width="6.8610978"
   height="8.0087919"
   fill="currentColor"
   class="bi bi-check-lg"
   viewBox="0 0 6.8610978 8.0087919"
   version="1.1"
   id="svg1"
   xmlns="http://www.w3.org/2000/svg"
   xmlns:svg="http://www.w3.org/2000/svg">
  <defs
     id="defs1" />
  <path
     id="path1"
     style="fill:#000000;fill-opacity:1"
     d="m 6.1205011,1.0397735e-5 c -0.1899,0 -0.3797372,0.07408000227 -0.5234382,0.220703102265 l -0.019531,0.021484 -5.3691408,6.4980465 -0.00195,-0.002 c -0.28,0.294 -0.2742812,0.761782 0.011719,1.050781 0.2827504,0.2885 0.7446641,0.292836 1.0332031,0.01367 l 0.00195,0.002 0.011719,-0.01563 0.019531,-0.02344 5.3691409,-6.4960938 c 0.28,-0.294 0.276234,-0.7598281 -0.0098,-1.0488281 C 6.5002041,0.0740805 6.3103661,-1.0398368e-8 6.1204671,-1.0398368e-8 Z" />
  <path
     id="path2"
     style="fill:#000000;fill-opacity:1"
     d="m 6.1205011,8.008777 c -0.1899,0 -0.3797372,-0.07408 -0.5234382,-0.220703 l -0.019531,-0.02148 -5.3691408,-6.4980457 -0.00195,0.002 c -0.28,-0.294 -0.2742812,-0.761782 0.011719,-1.050781 0.2827504,-0.2885 0.7446641,-0.292836 1.0332031,-0.01367 l 0.00195,-0.002 0.011719,0.01563 0.019531,0.02344 5.3691409,6.4960937 c 0.28,0.294 0.276234,0.759828 -0.0098,1.048828 -0.1437,0.146622 -0.333538,0.220703 -0.523437,0.220703 z" />
</svg>
