<?xml version="1.0" encoding="UTF-8" standalone="no"?>
<!-- Created with Inkscape (http://www.inkscape.org/) -->

<svg
   width="19.999973mm"
   height="19.842508mm"
   viewBox="0 0 19.999973 19.842508"
   version="1.1"
   id="svg5"
   xmlns="http://www.w3.org/2000/svg"
   xmlns:svg="http://www.w3.org/2000/svg">
  <defs
     id="defs2">
    <linearGradient
       id="linearGradient36374">
      <stop
         style="stop-color:#ff0000;stop-opacity:1;"
         offset="0"
         id="stop36372" />
    </linearGradient>
  </defs>
  <g
     id="layer1"
     transform="translate(-356.87386,24.004589)">
    <path
       d="m 373.9605,-4.4536775 c -0.25984,-0.159728 -1.18181,-1.0420536 -2.04882,-1.9607221 l -1.57639,-1.6703058 -0.62834,0.07471 -0.62833,0.074716 -1.31434,0.6267583 -1.31433,0.6267583 h -0.34217 -0.34216 l -1.52059,-1.5354334 -1.5206,-1.5354274 -0.03,-0.3149624 c -0.0165,-0.173227 -0.0218,-0.485297 -0.0119,-0.693492 l 0.0181,-0.37853 3.34646,-3.374764 3.34646,-3.374766 0.42524,-0.223081 c 0.23389,-0.122695 0.61586,-0.223081 0.84884,-0.223081 h 0.42357 l 1.55092,1.523749 c 0.85301,0.838061 1.59356,1.658111 1.64569,1.82234 l 0.0948,0.298588 -0.65125,1.35723 -0.65124,1.357225 -0.088,0.641918 -0.088,0.641912 1.7553,1.6322781 1.7553,1.6322784 0.22957,0.4439305 c 0.12626,0.2441632 0.22956,0.6347339 0.22956,0.8679455 v 0.424021 l -0.7649,0.7649043 -0.7649,0.7648984 -0.45557,-5.952e-4 -0.45557,-5.952e-4 -0.47244,-0.2904163 z m -11.09563,-3.4218446 c -1.31622,-1.1891218 -5.66136,-5.5712219 -5.82215,-5.8716729 -0.0928,-0.173489 -0.16882,-0.405986 -0.16882,-0.51667 v -0.201237 l 4.76033,-4.769744 4.76032,-4.769742 h 0.41079 0.41079 l 3.17534,3.147332 3.17533,3.14732 -0.002,0.356609 c -10e-4,0.196136 -0.0668,0.458352 -0.14548,0.582707 l -0.14307,0.226093 -0.25732,-0.213558 c -0.14152,-0.117457 -0.35153,-0.4318 -0.46667,-0.698533 l -0.20935,-0.484982 -2.58762,-2.559053 -2.58761,-2.559054 h -0.29758 -0.29757 l -4.29793,4.287523 -4.29794,4.287517 v 0.399255 0.399255 l 2.63949,2.636054 2.63948,2.6360552 h 0.2495 c 0.54958,0 0.98008,0.8308585 0.52164,1.006776 -0.41285,0.1584246 -0.51215,0.1183914 -1.16149,-0.4682503 z m -2.36378,-4.7065859 -1.64277,-1.648378 0.11532,-0.115314 0.11531,-0.115315 1.64838,1.642772 c 1.54421,1.538951 1.82436,1.884614 1.52745,1.884614 -0.0665,0 -0.86016,-0.741769 -1.76369,-1.648379 z m 0.68863,-0.712967 c -1.44786,-1.45004 -1.61126,-1.65555 -1.44697,-1.819839 0.0333,-0.03327 0.79085,0.672441 1.68355,1.568194 l 1.62311,1.628642 -0.14988,0.09264 -0.14989,0.09263 z m 0.65805,-0.625454 -1.5554,-1.547815 0.0968,-0.252377 0.0969,-0.252377 h 0.2049 0.20491 l 1.45358,1.459653 c 1.48167,1.487859 1.60545,1.682835 1.25365,1.974799 l -0.19994,0.16593 z m 0.86452,-1.017442 -1.62005,-1.625578 0.14602,-0.09025 0.14601,-0.09024 1.62005,1.625583 1.62005,1.625577 -0.14602,0.09024 -0.14601,0.09024 z m 0.70268,-0.635587 c -0.77652,-0.807949 -1.43793,-1.547266 -1.46982,-1.642927 l -0.058,-0.173935 h 0.13419 c 0.16308,0 3.19914,3.029091 3.19914,3.191795 0,0.35146 -0.54572,-0.06411 -1.80554,-1.374933 z m 0.62577,-0.713163 -1.56757,-1.573461 0.27364,-0.273638 0.27364,-0.273631 1.60042,1.600423 1.60043,1.600429 -0.20472,0.246677 c -0.30072,0.36234 -0.27755,0.377898 -1.97584,-1.326799 z m 0.97996,-0.909664 c -1.46037,-1.465866 -1.7001,-1.768835 -1.39966,-1.768835 0.15144,0 3.06787,2.922953 3.14802,3.155064 0.14048,0.406844 -0.34739,0.02 -1.74836,-1.386229 z m 0.68939,-0.728013 -1.62573,-1.631273 0.19237,-0.118891 0.19237,-0.118886 1.59175,1.591757 1.59177,1.591764 -0.15841,0.1584 -0.1584,0.158401 z m 0.69285,-0.724526 -1.56756,-1.573461 0.27363,-0.273638 0.27364,-0.273631 1.60042,1.600423 1.60043,1.600429 -0.20472,0.246675 c -0.30071,0.362341 -0.27754,0.377899 -1.97584,-1.326797 z m 0.97997,-0.909663 c -1.44531,-1.450743 -1.69908,-1.768836 -1.41121,-1.768836 0.17187,0 3.18581,2.995229 3.18581,3.166028 0,0.316539 -0.31212,0.0708 -1.7746,-1.397192 z m 0.69191,-0.725479 -1.62825,-1.633814 0.14593,-0.09019 0.14594,-0.0902 1.71866,1.724005 1.71866,1.724004 h -0.23635 -0.23635 z"
       style="fill:#ffffff;stroke-width:0.15748"
       id="path1-3" />
  </g>
</svg>
